#!OML:ASF I:\Actors\actors\Patient Classification 2\Patient 1\Session 1\actor1.ASF
:FULLY-SPECIFIED
:DEGREES
192
root -0.660623 18.7238 5.63871 3.24861 -3.58169 -1.33483
lowerback 2.48917 1.04716 -0.156981
upperback -0.336339 1.40513 0.791138
thorax -1.76321 0.707085 0.842663
lowerneck 2.56389 -2.00458 -1.22266
upperneck 17.1974 -3.26004 3.91585
head 4.81972 -1.46608 1.30689
rclavicle 3.88873e-015 -1.13307e-014
rhumerus -6.16206 33.7359 -61.6675
rradius 138.131
rwrist -21.511
rhand -9.28158 -33.798
rfingers 7.12502
rthumb 16.6754 -63.1017
lclavicle 3.88873e-015 -1.13307e-014
lhumerus -0.424613 -35.7826 64.5059
lradius 134.206
lwrist 29.51
lhand -14.9298 -33.5665
lfingers 7.12502
lthumb 11.2324 -3.88723
rfemur 0 0 0
rtibia 0
rfoot 0 0
rtoes 0
lfemur -5.01557 -8.09858 -13.4344
ltibia 20.7972
lfoot -25.5513 18.2705
ltoes -53.6805
193
root -0.66044 18.7242 5.64058 3.24495 -3.58579 -1.35567
lowerback 2.46272 1.04308 -0.159623
upperback -0.312485 1.39969 0.809373
thorax -1.72434 0.704357 0.863835
lowerneck 2.53925 -1.99036 -1.26536
upperneck 17.2336 -3.25231 3.99257
head 4.83639 -1.46006 1.3378
rclavicle -6.15301e-015 -3.8266e-015
rhumerus -6.20007 33.645 -61.6859
rradius 137.811
rwrist -22.1751
rhand -9.12694 -34.0636
rfingers 7.12502
rthumb 16.8242 -63.3547
lclavicle -6.15301e-015 -3.8266e-015
lhumerus -0.606852 -35.8208 64.8115
lradius 134.008
lwrist 30.3742
lhand -15.1066 -32.8619
lfingers 7.12502
lthumb 11.0619 -3.17344
rfemur 0 0 0
rtibia 0
rfoot 0 0
rtoes 0
lfemur -5.00209 -8.1235 -13.4186
ltibia 20.8024
lfoot -25.5521 18.303
ltoes -53.7196
194
root -0.660287 18.7248 5.64346 3.25522 -3.57217 -1.37661
lowerback 2.41146 1.03992 -0.13899
upperback -0.288046 1.39584 0.813192
thorax -1.67007 0.702101 0.857619
lowerneck 2.48549 -2.00728 -1.22934
upperneck 17.2594 -3.27428 3.97289
head 4.85317 -1.46869 1.32423
rclavicle 5.684e-015 -4.37326e-015
rhumerus -6.29447 33.5743 -61.7612
rradius 137.506
rwrist -22.805
rhand -8.97014 -34.3597
rfingers 7.12502
rthumb 16.9752 -63.6379
lclavicle 5.684e-015 -4.37326e-015
lhumerus -0.763138 -35.8427 65.1259
lradius 133.767
lwrist 31.1295
lhand -15.2765 -32.1628
lfingers 7.12502
lthumb 10.8981 -2.46563
rfemur 0 0 0
rtibia 0
rfoot 0 0
rtoes 0
lfemur -5.01162 -8.11382 -13.3936
ltibia 20.8149
lfoot -25.5137 18.3199
ltoes -53.8017
195
root -0.660474 18.7242 5.64787 3.26811 -3.55567 -1.40381
lowerback 2.34661 1.07699 -0.0938614
upperback -0.30017 1.44564 0.762934
thorax -1.64451 0.726321 0.780094
lowerneck 2.57334 -2.05498 -1.01899
upperneck 17.1814 -3.33521 3.93879
head 4.81276 -1.48942 1.27756
rclavicle -1.67228e-014 -1.24737e-014
rhumerus -6.62814 33.4364 -62.0432
rradius 137.234
rwrist -23.4305
rhand -8.77069 -34.8285
rfingers 7.12502
rthumb 17.1672 -64.0901
lclavicle -1.67228e-014 -1.24737e-014
lhumerus -0.891943 -36.0105 65.3542
lradius 133.483
lwrist 31.834
lhand -15.4491 -31.6271
lfingers 7.12502
lthumb 10.7316 -1.92117
rfemur 0 0 0
rtibia 0
rfoot 0 0
rtoes 0
lfemur -5.0214 -8.06766 -13.3557
ltibia 20.8349
lfoot -25.5538 18.2256
ltoes -53.7246
196
root -0.66042 18.7234 5.6522 3.25133 -3.54993 -1.44105
lowerback 2.31734 1.18197 -0.0226763
upperback -0.368595 1.58593 0.633523
thorax -1.69469 0.795284 0.602142
lowerneck 2.86375 -2.15555 -0.573842
upperneck 16.9979 -3.47079 3.94171
head 4.70538 -1.53449 1.2037
rclavicle -1.85413e-014 -1.922e-014
rhumerus -7.29984 33.1666 -62.573
rradius 136.989
rwrist -24.0122
rhand -8.52916 -35.367
rfingers 7.12502
rthumb 17.3996 -64.6082
lclavicle -1.85413e-014 -1.922e-014
lhumerus -0.984263 -36.4527 65.4701
lradius 133.151
lwrist 32.6313
lhand -15.6823 -31.2416
lfingers 7.12502
lthumb 10.5066 -1.52418
rfemur 0 0 0
rtibia 0
rfoot 0 0
rtoes 0
lfemur -4.99838 -8.02271 -13.3163
ltibia 20.856
lfoot -25.6051 18.1278
ltoes -53.5893
197
root -0.660002 18.7233 5.65581 3.22743 -3.5607 -1.45777
lowerback 2.31566 1.23407 -0.00286627
upperback -0.414597 1.65517 0.569448
thorax -1.73922 0.829444 0.522216
lowerneck 3.04721 -2.1983 -0.326517
upperneck 16.8103 -3.52356 3.94659
head 4.61515 -1.55031 1.16517
rclavicle 5.81833e-015 -7.77745e-015
rhumerus -7.72234 33.0445 -62.9167
rradius 136.695
rwrist -24.6971
rhand -8.40544 -35.8003
rfingers 7.12502
rthumb 17.5187 -65.031
lclavicle 5.81833e-015 -7.77745e-015
lhumerus -1.20576 -36.7062 65.7423
lradius 132.811
lwrist 33.4562
lhand -15.8017 -30.8403
lfingers 7.12502
lthumb 10.3915 -1.11709
rfemur 0 0 0
rtibia 0
rfoot 0 0
rtoes 0
lfemur -4.9684 -8.04382 -13.3121
ltibia 20.8791
lfoot -25.6236 18.1656
ltoes -53.5789
